<svg width="178" height="72" viewBox="0 0 178 72" fill="none" xmlns="http://www.w3.org/2000/svg">
<path d="M41.9553 68.8755L63.2386 55.2459C64.0217 54.7446 64.5649 53.9442 64.7419 53.0314C65.2723 50.2987 62.4719 48.1227 59.955 49.3113L45.6471 56.0676C43.1082 57.2665 40.1856 55.4146 40.1856 52.6068V19.1005C40.1856 16.2678 43.1561 14.4167 45.699 15.6647L59.8256 22.5972C62.3796 23.8505 65.2689 21.6522 64.7422 18.8566C64.5652 17.9173 64.0069 17.0933 63.2003 16.5807L42.0131 3.11707C40.8793 2.39649 39.4506 2.32324 38.2488 2.92408L8.81292 17.6421C7.5163 18.2904 6.69727 19.6156 6.69727 21.0653V52.0179C6.69727 53.5076 7.56165 54.862 8.91281 55.4894L38.2797 69.124C39.4666 69.6751 40.853 69.5813 41.9553 68.8755Z" fill="#088B64"/>
<path d="M97.984 39.36H103.36C102.496 44.736 98.176 48.416 92.32 48.416C85.088 48.416 80.704 43.808 80.704 36.384C80.704 29.056 85.216 24.416 92.48 24.416C98.272 24.416 102.432 28.192 103.2 33.472H97.824C97.216 30.304 94.88 28.928 92.288 28.928C89.056 28.928 86.496 31.648 86.496 36.384C86.496 41.28 89.024 43.904 92.352 43.904C94.752 43.904 97.28 42.88 97.984 39.36ZM106.304 48V24.8H116.416C121.504 24.8 125.28 25.952 125.28 30.816C125.28 32.96 124.32 34.528 122.528 35.648C124.704 36.416 126.208 38.048 126.208 40.864C126.208 46.08 122.464 48 116.832 48H106.304ZM111.776 38.144V43.392H116.896C119.232 43.392 120.416 42.4 120.416 40.768C120.416 39.136 119.232 38.144 116.896 38.144H111.776ZM111.776 29.408V34.08H116.608C118.528 34.08 119.584 33.152 119.584 31.712C119.584 30.272 118.528 29.408 116.608 29.408H111.776ZM133.746 36.416C133.746 41.344 136.562 43.904 139.986 43.904C143.41 43.904 146.226 41.344 146.226 36.416C146.226 31.488 143.41 28.928 139.986 28.928C136.562 28.928 133.746 31.488 133.746 36.416ZM152.018 36.416C152.018 43.648 147.09 48.416 139.986 48.416C132.85 48.416 127.954 43.648 127.954 36.416C127.954 29.184 132.85 24.416 139.986 24.416C147.09 24.416 152.018 29.184 152.018 36.416ZM155.023 48V24.8H160.303V39.84L170.159 24.8H175.439V48H170.159V32.96L160.303 48H155.023Z" fill="black"/>
</svg>
