<svg width="126" height="46" viewBox="0 0 126 46" fill="none" xmlns="http://www.w3.org/2000/svg">
<g clip-path="url(#clip0_158_2092)">
<path fill-rule="evenodd" clip-rule="evenodd" d="M22.4262 1.32949C22.9215 -0.197725 25.079 -0.19772 25.5744 1.3295L30.0853 15.2336C30.3069 15.9166 30.9425 16.379 31.6596 16.379H46.2572C47.8606 16.379 48.5273 18.4339 47.2302 19.3777L35.4204 27.9709C34.8402 28.393 34.5975 29.1412 34.8191 29.8243L36.2093 34.109C34.9478 34.0599 33.6495 34.3827 32.3893 35.1114C30.4288 36.2451 29.1977 37.8632 28.8322 39.7964L24.9731 36.9885C24.393 36.5664 23.6076 36.5664 23.0275 36.9885L11.2176 45.5816C9.92042 46.5255 8.17508 45.2555 8.67056 43.7284L13.1815 29.8243C13.4031 29.1412 13.1603 28.393 12.5802 27.9709L0.770419 19.3777C-0.526762 18.4339 0.139904 16.379 1.74331 16.379H16.341C17.0581 16.379 17.6936 15.9166 17.9152 15.2336L22.4262 1.32949ZM34.8799 39.4831C35.9802 38.847 36.9324 38.6698 37.7301 38.797L39.3301 43.7284C39.8254 45.2555 38.0802 46.5255 36.783 45.5816L32.6415 42.5682C32.6817 41.5001 33.298 40.3977 34.8799 39.4831ZM30.8527 23.604C30.0206 19.9927 26.8222 18.8558 23.9099 18.8558C19.6713 18.8558 16.7589 21.3303 16.7589 25.1423C16.7589 28.9541 19.3072 31.4955 23.9099 31.4955C26.7183 31.4955 30.0727 30.3585 31.0348 26.7919H27.0303C26.7183 27.9288 25.756 28.642 24.1699 28.642C22.6356 28.642 21.1275 27.7726 21.1275 25.1645C21.1275 22.6009 22.6356 21.7093 24.1699 21.7093C25.444 21.7093 26.4582 22.1997 26.8482 23.604H30.8527Z" fill="#3754ED"/>
</g>
<path d="M70.364 25.56H74.06C73.466 29.256 70.496 31.786 66.47 31.786C61.498 31.786 58.484 28.618 58.484 23.514C58.484 18.476 61.586 15.286 66.58 15.286C70.562 15.286 73.422 17.882 73.95 21.512H70.254C69.836 19.334 68.23 18.388 66.448 18.388C64.226 18.388 62.466 20.258 62.466 23.514C62.466 26.88 64.204 28.684 66.492 28.684C68.142 28.684 69.88 27.98 70.364 25.56ZM76.084 31.5V15.55H83.036C86.534 15.55 89.13 16.342 89.13 19.686C89.13 21.16 88.47 22.238 87.238 23.008C88.734 23.536 89.768 24.658 89.768 26.594C89.768 30.18 87.194 31.5 83.322 31.5H76.084ZM79.846 24.724V28.332H83.366C84.972 28.332 85.786 27.65 85.786 26.528C85.786 25.406 84.972 24.724 83.366 24.724H79.846ZM79.846 18.718V21.93H83.168C84.488 21.93 85.214 21.292 85.214 20.302C85.214 19.312 84.488 18.718 83.168 18.718H79.846ZM94.9504 23.536C94.9504 26.924 96.8864 28.684 99.2404 28.684C101.594 28.684 103.53 26.924 103.53 23.536C103.53 20.148 101.594 18.388 99.2404 18.388C96.8864 18.388 94.9504 20.148 94.9504 23.536ZM107.512 23.536C107.512 28.508 104.124 31.786 99.2404 31.786C94.3344 31.786 90.9684 28.508 90.9684 23.536C90.9684 18.564 94.3344 15.286 99.2404 15.286C104.124 15.286 107.512 18.564 107.512 23.536ZM109.578 31.5V15.55H113.208V25.89L119.984 15.55H123.614V31.5H119.984V21.16L113.208 31.5H109.578Z" fill="black"/>
<defs>
<clipPath id="clip0_158_2092">
<rect width="48" height="46" fill="white"/>
</clipPath>
</defs>
</svg>
